<?xml version="1.0" encoding="UTF-8"?>
<svg id="Camada_1" data-name="Camada 1" xmlns="http://www.w3.org/2000/svg" width="9cm" height="5cm" viewBox="0 0 255.12 141.73">
  <defs>
    <style>
      .cls-1 {
        font-family: RoobertPROTRIAL-Bold, 'Roobert PRO TRIAL';
        font-size: 10px;
        font-weight: 700;
      }

      .cls-1, .cls-2, .cls-3 {
        fill: #231c1a;
      }

      .cls-3 {
        font-family: RoobertPROTRIAL-Regular, 'Roobert PRO TRIAL';
        font-size: 8.5px;
      }

      .cls-4 {
        letter-spacing: -.01em;
      }

      .cls-5 {
        letter-spacing: -.02em;
      }

      .cls-6 {
        letter-spacing: -.02em;
      }

      .cls-7 {
        letter-spacing: -.02em;
      }

      .cls-8 {
        letter-spacing: -.01em;
      }

      .cls-9 {
        letter-spacing: -.03em;
      }

      .cls-10 {
        letter-spacing: -.03em;
      }

      .cls-11 {
        letter-spacing: 0em;
      }

      .cls-12 {
        letter-spacing: 0em;
      }
    </style>
  </defs>
  
  
  <rect class="cls-2" x="54.52" y="63.72" width="146.08" height=".45"/>
  <path d="M92.56 53.96L94.06 53.96L94.06 51.11L96.66 51.11L96.66 49.81L94.06 49.81L94.06 48.25L97.32 48.25L97.32 46.96L92.56 46.96M100.90 48.90L101.72 51.17L100.09 51.17M97.53 53.96L99.09 53.96L99.64 52.43L102.17 52.43L102.72 53.96L104.28 53.96L101.61 46.96L100.19 46.96M100.29 46.40L101.46 46.40L102.56 45.12L101.07 45.12M105 53.96L107.86 53.96C109.33 53.96 110.34 53.20 110.34 51.87C110.34 50.95 109.81 50.39 109.17 50.14C109.58 49.92 110 49.42 110 48.76C110 47.59 109.05 46.96 107.77 46.96L105 46.96M106.47 52.66L106.47 50.90L107.72 50.90C108.55 50.90 108.92 51.22 108.92 51.79C108.92 52.36 108.55 52.66 107.72 52.66M106.47 49.63L106.47 48.15L107.63 48.15C108.30 48.15 108.61 48.42 108.61 48.89C108.61 49.36 108.30 49.63 107.66 49.63M111.34 53.96L112.85 53.96L112.85 46.96L111.34 46.96M117.45 54.04C119.50 54.04 121.02 52.52 121.02 50.46C121.02 48.40 119.50 46.88 117.45 46.88C115.39 46.88 113.87 48.40 113.87 50.46C113.87 52.52 115.39 54.04 117.45 54.04M115.38 50.46C115.38 49.15 116.24 48.17 117.44 48.17C118.64 48.17 119.51 49.15 119.51 50.46C119.51 51.77 118.64 52.74 117.44 52.74C116.24 52.74 115.38 51.77 115.38 50.46M126.49 54.04C128.06 54.04 129.11 53.22 129.11 51.91C129.11 49.14 125.43 50.32 125.43 48.86C125.43 48.45 125.80 48.17 126.41 48.17C127.06 48.17 127.48 48.53 127.54 49.08L128.97 49.08C128.92 47.75 127.91 46.88 126.41 46.88C124.97 46.88 123.97 47.70 123.97 48.86C123.97 51.61 127.60 50.56 127.60 51.93C127.60 52.46 127.16 52.74 126.49 52.74C125.74 52.74 125.27 52.29 125.21 51.58L123.77 51.58C123.83 53.07 124.89 54.04 126.49 54.04M132.88 48.90L133.70 51.17L132.07 51.17M129.51 53.96L131.07 53.96L131.63 52.43L134.16 52.43L134.70 53.96L136.26 53.96L133.59 46.96L132.17 46.96M136.97 53.96L138.47 53.96L138.47 49.33L141.28 53.96L142.88 53.96L142.88 46.96L141.38 46.96L141.38 51.59L138.57 46.96L136.97 46.96M145.72 53.96L147.23 53.96L147.23 48.25L149.31 48.25L149.31 46.96L143.66 46.96L143.66 48.25L145.72 48.25M153.33 54.04C155.38 54.04 156.90 52.52 156.90 50.46C156.90 48.40 155.38 46.88 153.33 46.88C151.27 46.88 149.75 48.40 149.75 50.46C149.75 52.52 151.27 54.04 153.33 54.04M151.26 50.46C151.26 49.15 152.12 48.17 153.31 48.17C154.52 48.17 155.39 49.15 155.39 50.46C155.39 51.77 154.52 52.74 153.31 52.74C152.12 52.74 151.26 51.77 151.26 50.46M160.26 54.04C161.82 54.04 162.88 53.22 162.88 51.91C162.88 49.14 159.20 50.32 159.20 48.86C159.20 48.45 159.57 48.17 160.17 48.17C160.83 48.17 161.25 48.53 161.31 49.08L162.73 49.08C162.69 47.75 161.68 46.88 160.17 46.88C158.74 46.88 157.74 47.70 157.74 48.86C157.74 51.61 161.37 50.56 161.37 51.93C161.37 52.46 160.92 52.74 160.26 52.74C159.51 52.74 159.04 52.29 158.98 51.58L157.54 51.58C157.60 53.07 158.66 54.04 160.26 54.04" fill="#231c1a"/>
  <path d="M94.80 82.15L95.45 82.15C94.76 81 94.37 79.73 94.37 78.50C94.37 77.26 94.76 75.99 95.45 74.84L94.80 74.84C94.08 75.90 93.67 77.23 93.67 78.50C93.67 79.75 94.08 81.10 94.80 82.15M99.14 81.03L99.87 81.03L99.87 79.54L100.80 79.54L100.80 78.89L99.87 78.89L99.87 75.08L99.02 75.08L95.95 78.89L95.95 79.54L99.14 79.54M96.73 78.89L99.15 75.88L99.15 78.89M104.50 81.03L105.23 81.03L105.23 79.54L106.16 79.54L106.16 78.89L105.23 78.89L105.23 75.08L104.38 75.08L101.32 78.89L101.32 79.54L104.50 79.54M102.09 78.89L104.51 75.88L104.51 78.89M107.26 74.84L106.60 74.84C107.29 75.99 107.68 77.26 107.68 78.50C107.68 79.74 107.29 81 106.60 82.15L107.26 82.15C107.97 81.10 108.39 79.76 108.39 78.50C108.39 77.24 107.97 75.90 107.26 74.84M113.38 79.06C114.03 79.06 114.69 78.68 114.93 78.13C114.88 79.44 114.24 80.46 113.29 80.46C112.58 80.46 112.10 80.09 111.97 79.52L111.24 79.52C111.40 80.46 112.20 81.11 113.30 81.11C114.62 81.11 115.62 79.98 115.62 77.74C115.62 76.10 114.77 75.01 113.41 75.01C112.18 75.01 111.28 75.86 111.28 77.03C111.28 78.20 112.15 79.06 113.38 79.06M112.03 77.04C112.03 76.24 112.60 75.67 113.40 75.67C114.21 75.67 114.79 76.24 114.79 77.04C114.79 77.83 114.21 78.40 113.40 78.40C112.60 78.40 112.03 77.83 112.03 77.04M118.61 79.06C119.27 79.06 119.92 78.68 120.17 78.13C120.12 79.44 119.48 80.46 118.53 80.46C117.81 80.46 117.34 80.09 117.20 79.52L116.48 79.52C116.63 80.46 117.44 81.11 118.54 81.11C119.85 81.11 120.86 79.98 120.86 77.74C120.86 76.10 120.01 75.01 118.65 75.01C117.42 75.01 116.51 75.86 116.51 77.03C116.51 78.20 117.38 79.06 118.61 79.06M117.26 77.04C117.26 76.24 117.84 75.67 118.64 75.67C119.45 75.67 120.02 76.24 120.02 77.04C120.02 77.83 119.45 78.40 118.64 78.40C117.84 78.40 117.26 77.83 117.26 77.04M123.85 79.06C124.50 79.06 125.16 78.68 125.41 78.13C125.35 79.44 124.72 80.46 123.76 80.46C123.05 80.46 122.57 80.09 122.44 79.52L121.72 79.52C121.87 80.46 122.68 81.11 123.77 81.11C125.09 81.11 126.09 79.98 126.09 77.74C126.09 76.10 125.24 75.01 123.88 75.01C122.65 75.01 121.75 75.86 121.75 77.03C121.75 78.20 122.62 79.06 123.85 79.06M122.50 77.04C122.50 76.24 123.08 75.67 123.88 75.67C124.68 75.67 125.26 76.24 125.26 77.04C125.26 77.83 124.68 78.40 123.88 78.40C123.08 78.40 122.50 77.83 122.50 77.04M129.09 79.06C129.74 79.06 130.39 78.68 130.64 78.13C130.59 79.44 129.95 80.46 129 80.46C128.29 80.46 127.81 80.09 127.67 79.52L126.95 79.52C127.11 80.46 127.91 81.11 129.01 81.11C130.33 81.11 131.33 79.98 131.33 77.74C131.33 76.10 130.48 75.01 129.12 75.01C127.89 75.01 126.99 75.86 126.99 77.03C126.99 78.20 127.85 79.06 129.09 79.06M127.73 77.04C127.73 76.24 128.31 75.67 129.11 75.67C129.92 75.67 130.50 76.24 130.50 77.04C130.50 77.83 129.92 78.40 129.11 78.40C128.31 78.40 127.73 77.83 127.73 77.04M134.32 79.06C134.98 79.06 135.63 78.68 135.88 78.13C135.83 79.44 135.19 80.46 134.24 80.46C133.52 80.46 133.05 80.09 132.91 79.52L132.19 79.52C132.34 80.46 133.15 81.11 134.25 81.11C135.56 81.11 136.57 79.98 136.57 77.74C136.57 76.10 135.72 75.01 134.36 75.01C133.12 75.01 132.22 75.86 132.22 77.03C132.22 78.20 133.09 79.06 134.32 79.06M132.97 77.04C132.97 76.24 133.55 75.67 134.35 75.67C135.15 75.67 135.73 76.24 135.73 77.04C135.73 77.83 135.15 78.40 134.35 78.40C133.55 78.40 132.97 77.83 132.97 77.04M137.40 78.63L140.50 78.63L140.50 78.04L137.40 78.04M143.46 79.06C144.11 79.06 144.77 78.68 145.01 78.13C144.96 79.44 144.33 80.46 143.37 80.46C142.66 80.46 142.18 80.09 142.05 79.52L141.33 79.52C141.48 80.46 142.29 81.11 143.38 81.11C144.70 81.11 145.70 79.98 145.70 77.74C145.70 76.10 144.85 75.01 143.49 75.01C142.26 75.01 141.36 75.86 141.36 77.03C141.36 78.20 142.23 79.06 143.46 79.06M142.11 77.04C142.11 76.24 142.69 75.67 143.48 75.67C144.29 75.67 144.87 76.24 144.87 77.04C144.87 77.83 144.29 78.40 143.48 78.40C142.69 78.40 142.11 77.83 142.11 77.04M148.70 79.06C149.35 79.06 150 78.68 150.25 78.13C150.20 79.44 149.56 80.46 148.61 80.46C147.90 80.46 147.42 80.09 147.28 79.52L146.56 79.52C146.71 80.46 147.52 81.11 148.62 81.11C149.94 81.11 150.94 79.98 150.94 77.74C150.94 76.10 150.09 75.01 148.73 75.01C147.50 75.01 146.60 75.86 146.60 77.03C146.60 78.20 147.46 79.06 148.70 79.06M147.34 77.04C147.34 76.24 147.92 75.67 148.72 75.67C149.53 75.67 150.11 76.24 150.11 77.04C150.11 77.83 149.53 78.40 148.72 78.40C147.92 78.40 147.34 77.83 147.34 77.04M153.93 79.06C154.59 79.06 155.24 78.68 155.49 78.13C155.44 79.44 154.80 80.46 153.85 80.46C153.13 80.46 152.66 80.09 152.52 79.52L151.80 79.52C151.95 80.46 152.76 81.11 153.85 81.11C155.17 81.11 156.18 79.98 156.18 77.74C156.18 76.10 155.33 75.01 153.97 75.01C152.73 75.01 151.83 75.86 151.83 77.03C151.83 78.20 152.70 79.06 153.93 79.06M152.58 77.04C152.58 76.24 153.16 75.67 153.96 75.67C154.76 75.67 155.34 76.24 155.34 77.04C155.34 77.83 154.76 78.40 153.96 78.40C153.16 78.40 152.58 77.83 152.58 77.04M159.17 79.06C159.82 79.06 160.48 78.68 160.72 78.13C160.67 79.44 160.03 80.46 159.08 80.46C158.37 80.46 157.89 80.09 157.76 79.52L157.03 79.52C157.19 80.46 157.99 81.11 159.09 81.11C160.41 81.11 161.41 79.98 161.41 77.74C161.41 76.10 160.56 75.01 159.20 75.01C157.97 75.01 157.07 75.86 157.07 77.03C157.07 78.20 157.93 79.06 159.17 79.06M157.82 77.04C157.82 76.24 158.39 75.67 159.19 75.67C160 75.67 160.58 76.24 160.58 77.04C160.58 77.83 160 78.40 159.19 78.40C158.39 78.40 157.82 77.83 157.82 77.04" fill="#231c1a"/>
  <path d="M52.59 95.03L53.27 95.03L53.27 91.35L54.59 91.35L54.59 90.75L53.27 90.75L53.27 90.32C53.27 89.86 53.54 89.59 53.95 89.59L54.59 89.59L54.59 88.99L53.92 88.99C53.10 88.99 52.59 89.50 52.59 90.31L52.59 90.75L51.69 90.75L51.69 91.35L52.59 91.35M56.59 95.10C57.25 95.10 57.82 94.78 58.05 94.29L58.05 95.03L58.73 95.03L58.73 92.27C58.73 91.32 58.03 90.68 56.92 90.68C55.96 90.68 55.18 91.29 55.10 92.11L55.75 92.11C55.78 91.65 56.27 91.26 56.90 91.26C57.63 91.26 58.05 91.66 58.05 92.24C58.05 92.38 57.97 92.47 57.78 92.47L56.81 92.47C55.77 92.47 55.10 92.99 55.10 93.81C55.10 94.59 55.69 95.10 56.59 95.10M55.80 93.80C55.80 93.30 56.22 92.99 56.85 92.99L58.05 92.99L58.05 93.10C58.05 93.98 57.55 94.52 56.69 94.52C56.15 94.52 55.80 94.24 55.80 93.80M62.07 95.10C63.41 95.10 64.15 94.14 64.15 92.89C64.15 91.64 63.41 90.68 62.08 90.68C61.47 90.68 60.92 90.98 60.65 91.44L60.65 88.99L59.97 88.99L59.97 95.03L60.65 95.03L60.65 94.32C60.92 94.79 61.48 95.10 62.07 95.10M60.59 92.89C60.59 91.92 61.15 91.29 62.02 91.29C62.88 91.29 63.44 91.92 63.44 92.89C63.44 93.86 62.88 94.49 62.02 94.49C61.15 94.49 60.59 93.86 60.59 92.89M65.14 95.03L65.82 95.03L65.82 90.75L65.14 90.75M65.09 89.94L65.87 89.94L65.87 88.99L65.09 88.99M69 95.10C70.27 95.10 71.18 94.17 71.18 92.89C71.18 91.60 70.27 90.68 69 90.68C67.73 90.68 66.82 91.60 66.82 92.89C66.82 94.17 67.73 95.10 69 95.10M67.52 92.89C67.52 91.95 68.12 91.29 69 91.29C69.88 91.29 70.49 91.95 70.49 92.89C70.49 93.82 69.88 94.49 69 94.49C68.12 94.49 67.52 93.82 67.52 92.89M72.06 94.24L72.06 95.03L72.83 95.03L72.83 94.24M75.39 95.10C76.33 95.10 76.97 94.61 76.97 93.84C76.97 91.88 74.46 93.02 74.46 91.87C74.46 91.49 74.80 91.26 75.30 91.26C75.68 91.26 76.22 91.44 76.28 91.99L76.94 91.99C76.89 91.20 76.25 90.68 75.31 90.68C74.41 90.68 73.79 91.15 73.79 91.88C73.79 93.73 76.29 92.58 76.29 93.86C76.29 94.21 75.94 94.50 75.39 94.50C74.77 94.50 74.40 94.21 74.34 93.65L73.68 93.65C73.75 94.55 74.41 95.10 75.39 95.10M79.26 95.10C79.92 95.10 80.49 94.78 80.72 94.29L80.72 95.03L81.40 95.03L81.40 92.27C81.40 91.32 80.70 90.68 79.59 90.68C78.63 90.68 77.85 91.29 77.77 92.11L78.42 92.11C78.45 91.65 78.94 91.26 79.57 91.26C80.30 91.26 80.72 91.66 80.72 92.24C80.72 92.38 80.64 92.47 80.45 92.47L79.48 92.47C78.44 92.47 77.77 92.99 77.77 93.81C77.77 94.59 78.36 95.10 79.26 95.10M78.47 93.80C78.47 93.30 78.88 92.99 79.52 92.99L80.72 92.99L80.72 93.10C80.72 93.98 80.22 94.52 79.36 94.52C78.82 94.52 78.47 94.24 78.47 93.80M82.64 95.03L83.32 95.03L83.32 92.72C83.32 91.89 83.85 91.30 84.59 91.30C85.23 91.30 85.66 91.79 85.66 92.52L85.66 95.03L86.34 95.03L86.34 92.41C86.34 91.37 85.71 90.68 84.74 90.68C84.08 90.68 83.55 90.98 83.32 91.57L83.32 90.75L82.64 90.75M87.92 89.38L87.92 90.75L87.03 90.75L87.03 91.35L87.92 91.35L87.92 93.69C87.92 94.52 88.44 95.03 89.26 95.03L89.92 95.03L89.92 94.43L89.29 94.43C88.87 94.43 88.60 94.15 88.60 93.67L88.60 91.35L89.92 91.35L89.92 90.75L88.60 90.75L88.60 89.38M92.65 95.10C93.93 95.10 94.84 94.17 94.84 92.89C94.84 91.60 93.93 90.68 92.65 90.68C91.39 90.68 90.48 91.60 90.48 92.89C90.48 94.17 91.39 95.10 92.65 95.10M91.18 92.89C91.18 91.95 91.78 91.29 92.65 91.29C93.54 91.29 94.14 91.95 94.14 92.89C94.14 93.82 93.54 94.49 92.65 94.49C91.78 94.49 91.18 93.82 91.18 92.89M97.21 95.10C98.15 95.10 98.79 94.61 98.79 93.84C98.79 91.88 96.28 93.02 96.28 91.87C96.28 91.49 96.62 91.26 97.12 91.26C97.50 91.26 98.04 91.44 98.10 91.99L98.76 91.99C98.71 91.20 98.07 90.68 97.13 90.68C96.22 90.68 95.61 91.15 95.61 91.88C95.61 93.73 98.11 92.58 98.11 93.86C98.11 94.21 97.75 94.50 97.21 94.50C96.59 94.50 96.22 94.21 96.16 93.65L95.50 93.65C95.57 94.55 96.22 95.10 97.21 95.10M103.37 88.93L102.66 88.93C100.81 88.93 99.57 90.12 99.57 91.89L99.57 92.93C99.57 94.78 100.75 95.98 102.51 95.98L104.10 95.98L104.10 95.40L102.51 95.40C101.12 95.40 100.18 94.42 100.18 92.93L100.18 91.89C100.18 90.48 101.18 89.51 102.66 89.51L103.37 89.51C104.82 89.51 105.74 90.47 105.74 91.81L105.74 92.56C105.74 93.20 105.52 93.59 105.12 93.59C104.80 93.59 104.56 93.38 104.56 93.08L104.56 90.75L103.95 90.75L103.95 91.25C103.73 90.92 103.27 90.70 102.81 90.70C101.75 90.70 101.17 91.45 101.17 92.45C101.16 93.45 101.75 94.21 102.82 94.21C103.45 94.21 103.91 93.95 104.08 93.59C104.18 93.93 104.62 94.19 105.12 94.19C105.89 94.19 106.35 93.53 106.35 92.56L106.35 91.81C106.35 90.12 105.19 88.93 103.37 88.93M101.78 92.45C101.78 91.70 102.21 91.20 102.88 91.20C103.56 91.20 103.99 91.70 103.99 92.45C103.99 93.20 103.56 93.70 102.88 93.70C102.21 93.70 101.78 93.20 101.78 92.45M108.80 95.10C109.75 95.10 110.39 94.61 110.39 93.84C110.39 91.88 107.88 93.02 107.88 91.87C107.88 91.49 108.21 91.26 108.71 91.26C109.09 91.26 109.63 91.44 109.70 91.99L110.35 91.99C110.30 91.20 109.66 90.68 108.73 90.68C107.82 90.68 107.21 91.15 107.21 91.88C107.21 93.73 109.71 92.58 109.71 93.86C109.71 94.21 109.35 94.50 108.80 94.50C108.18 94.50 107.81 94.21 107.75 93.65L107.10 93.65C107.16 94.55 107.82 95.10 108.80 95.10M112.49 95.03L113.20 95.03L114.76 90.75L114.06 90.75L112.83 94.18L111.62 90.75L110.91 90.75M115.59 95.03L116.27 95.03L116.27 92.72C116.27 91.89 116.79 91.30 117.53 91.30C118.18 91.30 118.61 91.79 118.61 92.52L118.61 95.03L119.29 95.03L119.29 92.41C119.29 91.37 118.66 90.68 117.69 90.68C117.02 90.68 116.50 90.98 116.27 91.57L116.27 90.75L115.59 90.75M120.52 95.03L121.20 95.03L121.20 90.75L120.52 90.75M120.47 89.94L121.25 89.94L121.25 88.99L120.47 88.99M122.50 95.03L123.18 95.03L123.18 92.72C123.18 91.89 123.71 91.30 124.44 91.30C125.09 91.30 125.52 91.79 125.52 92.52L125.52 95.03L126.20 95.03L126.20 92.41C126.20 91.37 125.57 90.68 124.60 90.68C123.93 90.68 123.41 90.98 123.18 91.57L123.18 90.75L122.50 90.75M128.52 95.03L129.24 95.03L130.80 90.75L130.10 90.75L128.87 94.18L127.66 90.75L126.95 90.75M133.45 95.10C134.51 95.10 135.27 94.53 135.41 93.65L134.72 93.65C134.59 94.19 134.14 94.49 133.45 94.49C132.64 94.49 132.05 93.87 132 92.98L135.35 92.98C135.36 92.92 135.37 92.78 135.37 92.68C135.37 91.55 134.62 90.68 133.37 90.68C132.11 90.68 131.33 91.60 131.33 92.86C131.33 94.09 132.18 95.10 133.45 95.10M132.04 92.44C132.16 91.68 132.65 91.26 133.37 91.26C134.13 91.26 134.62 91.72 134.67 92.44M137.77 95.10C138.72 95.10 139.35 94.61 139.35 93.84C139.35 91.88 136.85 93.02 136.85 91.87C136.85 91.49 137.18 91.26 137.68 91.26C138.06 91.26 138.60 91.44 138.67 91.99L139.32 91.99C139.27 91.20 138.63 90.68 137.70 90.68C136.79 90.68 136.17 91.15 136.17 91.88C136.17 93.73 138.67 92.58 138.67 93.86C138.67 94.21 138.32 94.50 137.77 94.50C137.15 94.50 136.78 94.21 136.72 93.65L136.06 93.65C136.13 94.55 136.79 95.10 137.77 95.10M140.71 89.38L140.71 90.75L139.81 90.75L139.81 91.35L140.71 91.35L140.71 93.69C140.71 94.52 141.22 95.03 142.05 95.03L142.70 95.03L142.70 94.43L142.07 94.43C141.66 94.43 141.39 94.15 141.39 93.67L141.39 91.35L142.70 91.35L142.70 90.75L141.39 90.75L141.39 89.38M143.56 95.03L144.24 95.03L144.24 90.75L143.56 90.75M143.51 89.94L144.29 89.94L144.29 88.99L143.51 88.99M145.54 95.03L146.22 95.03L146.22 92.51C146.22 91.78 146.66 91.28 147.37 91.28C147.96 91.28 148.33 91.78 148.33 92.51L148.33 95.03L149.01 95.03L149.01 92.51C149.01 91.78 149.43 91.28 150.16 91.28C150.76 91.28 151.13 91.78 151.13 92.51L151.13 95.03L151.81 95.03L151.81 92.34C151.81 91.30 151.24 90.68 150.31 90.68C149.66 90.68 149.09 91.08 148.92 91.59C148.78 91 148.23 90.68 147.52 90.68C146.86 90.68 146.39 91.05 146.22 91.57L146.22 90.75L145.54 90.75M154.86 95.10C155.92 95.10 156.68 94.53 156.82 93.65L156.13 93.65C156 94.19 155.55 94.49 154.86 94.49C154.05 94.49 153.46 93.87 153.41 92.98L156.76 92.98C156.77 92.92 156.78 92.78 156.78 92.68C156.78 91.55 156.03 90.68 154.78 90.68C153.52 90.68 152.74 91.60 152.74 92.86C152.74 94.09 153.59 95.10 154.86 95.10M153.45 92.44C153.57 91.68 154.06 91.26 154.78 91.26C155.55 91.26 156.03 91.72 156.08 92.44M157.81 95.03L158.49 95.03L158.49 92.72C158.49 91.89 159.01 91.30 159.75 91.30C160.40 91.30 160.82 91.79 160.82 92.52L160.82 95.03L161.50 95.03L161.50 92.41C161.50 91.37 160.88 90.68 159.91 90.68C159.24 90.68 158.72 90.98 158.49 91.57L158.49 90.75L157.81 90.75M163.09 89.38L163.09 90.75L162.19 90.75L162.19 91.35L163.09 91.35L163.09 93.69C163.09 94.52 163.60 95.03 164.43 95.03L165.08 95.03L165.08 94.43L164.45 94.43C164.04 94.43 163.77 94.15 163.77 93.67L163.77 91.35L165.08 91.35L165.08 90.75L163.77 90.75L163.77 89.38M167.82 95.10C169.10 95.10 170 94.17 170 92.89C170 91.60 169.10 90.68 167.82 90.68C166.55 90.68 165.64 91.60 165.64 92.89C165.64 94.17 166.55 95.10 167.82 95.10M166.34 92.89C166.34 91.95 166.94 91.29 167.82 91.29C168.70 91.29 169.31 91.95 169.31 92.89C169.31 93.82 168.70 94.49 167.82 94.49C166.94 94.49 166.34 93.82 166.34 92.89M172.38 95.10C173.32 95.10 173.96 94.61 173.96 93.84C173.96 91.88 171.45 93.02 171.45 91.87C171.45 91.49 171.78 91.26 172.28 91.26C172.67 91.26 173.20 91.44 173.27 91.99L173.92 91.99C173.87 91.20 173.23 90.68 172.30 90.68C171.39 90.68 170.78 91.15 170.78 91.88C170.78 93.73 173.28 92.58 173.28 93.86C173.28 94.21 172.92 94.50 172.38 94.50C171.76 94.50 171.38 94.21 171.32 93.65L170.67 93.65C170.74 94.55 171.39 95.10 172.38 95.10M174.84 94.24L174.84 95.03L175.61 95.03L175.61 94.24M178.58 95.10C179.67 95.10 180.37 94.52 180.52 93.64L179.86 93.64C179.70 94.16 179.24 94.49 178.59 94.49C177.66 94.49 177.20 93.76 177.20 92.89C177.20 92.01 177.65 91.29 178.59 91.29C179.24 91.29 179.77 91.67 179.86 92.19L180.53 92.19C180.40 91.24 179.54 90.68 178.58 90.68C177.23 90.68 176.50 91.74 176.50 92.89C176.50 94.04 177.23 95.10 178.58 95.10M183.36 95.10C184.63 95.10 185.54 94.17 185.54 92.89C185.54 91.60 184.63 90.68 183.36 90.68C182.09 90.68 181.18 91.60 181.18 92.89C181.18 94.17 182.09 95.10 183.36 95.10M181.88 92.89C181.88 91.95 182.48 91.29 183.36 91.29C184.24 91.29 184.85 91.95 184.85 92.89C184.85 93.82 184.24 94.49 183.36 94.49C182.48 94.49 181.88 93.82 181.88 92.89M186.54 95.03L187.22 95.03L187.22 92.51C187.22 91.78 187.65 91.28 188.36 91.28C188.96 91.28 189.33 91.78 189.33 92.51L189.33 95.03L190.01 95.03L190.01 92.51C190.01 91.78 190.43 91.28 191.15 91.28C191.76 91.28 192.12 91.78 192.12 92.51L192.12 95.03L192.80 95.03L192.80 92.34C192.80 91.30 192.23 90.68 191.31 90.68C190.66 90.68 190.08 91.08 189.92 91.59C189.78 91 189.22 90.68 188.52 90.68C187.85 90.68 187.39 91.05 187.22 91.57L187.22 90.75L186.54 90.75M193.92 94.24L193.92 95.03L194.69 95.03L194.69 94.24M197.97 95.10C199.31 95.10 200.04 94.14 200.04 92.89C200.04 91.64 199.31 90.68 197.98 90.68C197.37 90.68 196.81 90.98 196.55 91.44L196.55 88.99L195.87 88.99L195.87 95.03L196.55 95.03L196.55 94.32C196.81 94.79 197.37 95.10 197.97 95.10M196.49 92.89C196.49 91.92 197.05 91.29 197.92 91.29C198.78 91.29 199.34 91.92 199.34 92.89C199.34 93.86 198.78 94.49 197.92 94.49C197.05 94.49 196.49 93.86 196.49 92.89M202.84 91.35L203.43 91.35L203.43 90.75L202.88 90.75C202.25 90.75 201.91 91.03 201.72 91.61L201.72 90.75L201.04 90.75L201.04 95.03L201.72 95.03L201.72 93.14C201.72 92.13 201.97 91.35 202.84 91.35" fill="#231c1a"/>
</svg>