<?xml version="1.0" encoding="UTF-8"?>
<svg id="Camada_1" data-name="Camada 1" xmlns="http://www.w3.org/2000/svg" width="9cm" height="5cm" viewBox="0 0 255.12 141.73">
  <defs>
    <style>
      .cls-1 {
        fill: #231c1a;
      }
    </style>
  </defs>
  <g>
    <path class="cls-1" d="M90.24,72.07c-.92-1.34-2.53-2.49-4.89-3.28-1.97-.66-4.14-1.18-6.13-1.7-1.71-.46-3.38-1-4.54-2.16-2.02-2.28.48-4.88,2.95-5.47,4.38-1.24,9.66.64,10.15,5.75h.99v-6.04h-.99c0,.66-.29.67-1.01.67-.89-.02-1.5-.35-2.41-.59-1.24-.34-2.5-.61-3.96-.59-3.35,0-6.48,1.01-8.66,4.1-1.13,1.61-1.09,4.1-.25,5.53.95,1.63,2.53,2.42,4.33,3.05,1.55.55,2.18.68,6.08,1.65,4.04,1,5.45,3.03,5.52,4.81.09,2.22-1.3,3.54-3.45,4.1-1.88.49-3.27.29-4.18.19-2.04-.22-3.8-.87-5.73-1.86-.22-.11-.41-.22-.55-.3l.02,1.05c2.58,1.2,4.84,1.54,6.26,1.65,1.67.12,3.86.25,6.46-.73,3.08-1.17,4.28-3.19,4.67-4.3.17-.5.7-1.9.09-3.9-.07-.23-.25-.9-.75-1.62h0Z"/>
    <path class="cls-1" d="M119.95,59.39h-9.73v.92h2.59v22.4h4.19v-.79h-2.34v-20.63l16.3,21.42h1.12l-.02-7.42-12.11-15.9Z"/>
    <path class="cls-1" d="M106.3,76.93l-7.47-16.64h2.06v-.91h-10.35v.91h2.56l10.08,22.41h1.06l2.33-5.15-.27-.62Z"/>
    <path class="cls-1" d="M134.27,59.39h-5.1v.73h5.1v-.73Z"/>
  </g>
  <path class="cls-1" d="M161.54,82.7h13.19v-.67c0-1.16.4-1.83,1.33-2.2v-.07h-3.7c-.2,0-.26-.04-.4-.17l-1.93-2-2,2.03c-.1.1-.17.13-.37.13h-2.97c-.17,0-.17-.1-.07-.2l3.79-3.7-3.87-3.73c-.1-.1-.07-.2.1-.2h3c.17,0,.23.04.33.13l2.1,2.1,1.96-2.1c.1-.1.17-.13.3-.13h7.83c1.8,0,3.4.6,4,2.4h.07v-11.82c0-2.07-1.07-3.13-3.13-3.13h-19.59c-2.07,0-3.13,1.07-3.13,3.13v17.06c0,2.07,1.07,3.13,3.13,3.13M171.73,75.87l3,2.9v-5.8l-3,2.9h0ZM177.23,82.7h3.9c2.07,0,3.13-1.07,3.13-3.13v-2.17h-.07c-.6,1.8-2.13,2.37-3.96,2.37h-2.9c-.07,0-.1.04-.1.1v2.84h0ZM177.23,77.4h2.93c1.1,0,1.87-.5,1.87-1.53s-.77-1.53-1.87-1.53h-2.93v3.06Z"/>
  <path class="cls-1" d="M146.49,54.66h-.49v32.42h.49v-32.42Z"/>
</svg>